inDegrees=no
num_controls=7
num_derivatives=13
num_iterations=87
num_multipliers=7
num_parameters=0
num_slacks=7
num_states=26
objective=0.449425
objective_accelerations=0.048707
objective_balance=0.007274
objective_effort=0.035866
objective_height=0.352618
objective_ligament=0.004960
solver_duration=1221.985755
status=Solve_Succeeded
success=true
DataType=double
version=3
OpenSimVersion=4.5
endheader
time	/jointset/ground_pelvis/pelvis_tilt/value	/jointset/ground_pelvis/pelvis_tx/value	/jointset/ground_pelvis/pelvis_ty/value	/jointset/hip_l/hip_flexion_l/value	/jointset/hip_l/hip_adduction_l/value	/jointset/hip_l/hip_rotation_l/value	/jointset/back/lumbar_extension/value	/jointset/patellofemoral_l/patellar_flexion_l/value	/jointset/knee_l/knee_flexion_l/value	/jointset/knee_l/knee_adduction_l/value	/jointset/knee_l/knee_rotation_l/value	/jointset/ankle_l/ankle_angle_l/value	/jointset/subtalar_l/subtalar_angle_l/value	/jointset/ground_pelvis/pelvis_tilt/speed	/jointset/ground_pelvis/pelvis_tx/speed	/jointset/ground_pelvis/pelvis_ty/speed	/jointset/hip_l/hip_flexion_l/speed	/jointset/hip_l/hip_adduction_l/speed	/jointset/hip_l/hip_rotation_l/speed	/jointset/back/lumbar_extension/speed	/jointset/patellofemoral_l/patellar_flexion_l/speed	/jointset/knee_l/knee_flexion_l/speed	/jointset/knee_l/knee_adduction_l/speed	/jointset/knee_l/knee_rotation_l/speed	/jointset/ankle_l/ankle_angle_l/speed	/jointset/subtalar_l/subtalar_angle_l/speed	/forceset/tau_hip_flexion_l	/forceset/tau_hip_adduction_l	/forceset/tau_hip_rotation_l	/forceset/tau_knee_flexion_l	/forceset/tau_ankle_angle_l	/forceset/tau_subtalar_angle_l	/forceset/tau_lumbar_extension	lambda_cid13_p0	lambda_cid13_p1	lambda_cid13_p2	lambda_cid13_p3	lambda_cid13_p4	lambda_cid13_p5	lambda_cid14_p0	/jointset/ground_pelvis/pelvis_tilt/accel	/jointset/ground_pelvis/pelvis_tx/accel	/jointset/ground_pelvis/pelvis_ty/accel	/jointset/hip_l/hip_flexion_l/accel	/jointset/hip_l/hip_adduction_l/accel	/jointset/hip_l/hip_rotation_l/accel	/jointset/back/lumbar_extension/accel	/jointset/patellofemoral_l/patellar_flexion_l/accel	/jointset/knee_l/knee_flexion_l/accel	/jointset/knee_l/knee_adduction_l/accel	/jointset/knee_l/knee_rotation_l/accel	/jointset/ankle_l/ankle_angle_l/accel	/jointset/subtalar_l/subtalar_angle_l/accel	gamma_cid13_p0	gamma_cid13_p1	gamma_cid13_p2	gamma_cid13_p3	gamma_cid13_p4	gamma_cid13_p5	gamma_cid14_p0
1.5	-0.4382456309074452	-0.07026643112183162	0.7653668518851737	1.250571471524579	-0.3098334029479309	-0.04539030611768778	-0.3437675837252976	0.6887645456761781	0.688764545675869	-0.173912915983653	0.1741978134733945	0.04284716874793976	-0.04799998963739675	0.7064421590377989	0.2551412737005806	0.4799994281714157	-2.2962646164973	0.03118396405596017	-0.6067257032794752	0.5697349738657567	-1.748485222463391	-1.748485222463313	0.003547653492190374	-0.004608676709315444	-0.2527794610549485	0.002035507740471483	-0.246333932597433	0.05124368487815012	-0.02137136159176908	-0.2028922623701229	0.1421041624451904	0.01179049645222377	0.2233029411262583	5.842665995755777	-8.881128183615695	4.140367255784654	-4.998497566860028	-611.1582581580021	-31.7148617400629	-28.30915311792807	0.6224138368069276	0.6664058542593553	-0.2890602152096037	-1.529335466212383	0.5866286100605791	-0.2788360924292579	1.757721464111599	-1.104908230623193	-1.104908230623173	0.0326884750662217	-0.05834777560543518	-0.1386259913258657	0.5677753111088952	2.607025504649403e-07	7.493782463593855e-07	-1.298288724091012e-06	-7.556213075074085e-08	3.442843153095367e-07	1.426637255942483e-09	2.878975427577631e-07
1.51	-0.4311504470423627	-0.06768191844503578	0.7701514599523465	1.227534599777407	-0.3094931624679198	-0.05147137734249835	-0.3379837653318358	0.6712267735411747	0.6712267735411017	-0.1738774468825951	0.174150253571699	0.04031262492061755	-0.04795226290730958	0.7124970958722949	0.2617309691974306	0.4768254932120915	-2.310789577645825	0.03686956402626104	-0.6093890133604676	0.5869491840636429	-1.758822260240166	-1.75882226023992	0.00352616176501619	-0.004915066016245099	-0.2540800921467495	0.007515762733146423	-0.2384722173993674	0.05004111129928369	-0.02122703166701758	-0.2014182466935717	0.1420793293321294	0.01155446748692264	0.2171582936518974	6.073705862911485	-8.94916662796077	4.299811253901677	-4.951817325152049	-606.7448437358153	-32.41262601619093	-29.31127430767543	0.5824220147485173	0.6507301443395609	-0.3460181045945385	-1.366033220835181	0.5602534859292065	-0.2449483600850702	1.691342683158748	-0.9610988240460439	-0.9610988240209517	-0.02238922530077798	-0.01841356327140456	-0.1183861096122198	0.5389084160887072	1.399293787194472e-07	1.007495468188005e-06	-7.174484615987923e-07	4.894194364676116e-08	2.6832652935334e-07	7.641114443107863e-08	2.263125074053406e-07
1.52	-0.4239976361273401	-0.06503241306388312	0.774901437076266	1.204362087062419	-0.3090959204291214	-0.05757605564695147	-0.3320301904592885	0.6535930315738372	0.6535930315739983	-0.1738427569445521	0.1740993039659205	0.03776655389407634	-0.0478495820627473	0.7179675690258959	0.2681398145719438	0.4730732395207415	-2.323392810060857	0.04258427581313756	-0.6114471192074931	0.603686269682795	-1.767679188930599	-1.767679188930186	0.003391820890181337	-0.005286617524561328	-0.2550849008987504	0.01302633063549839	-0.2306105022012979	0.0488385377204135	-0.02108270174230404	-0.1999442310170167	0.1420544962190665	0.01131843852161747	0.2110136461775419	6.297079470914078	-9.017490440306336	4.46115998337054	-4.893667016939995	-602.4519010950836	-33.16422561737458	-30.29546905744715	0.5055211006278821	0.6302358297920332	-0.4047239616147372	-1.144989719514077	0.5924509733757065	-0.1577952456358828	1.662296548364738	-0.8088864133549631	-0.8088864133549279	0.01011864553407806	-0.07138021588273886	-0.07946152336582056	0.5738378930442977	7.388183252906246e-08	1.175722840904423e-06	-4.092709406455803e-07	1.184393677457511e-07	2.338380295890448e-07	1.269509082821333e-07	1.957925227223036e-07
1.53	-0.4167930705365163	-0.0623197845540223	0.7796110452478832	1.181073207158466	-0.3086414194748883	-0.06369866437448092	-0.3259118778297	0.6358782418537383	0.6358782418537455	-0.1738097623038457	0.1740445980529258	0.03521195528886829	-0.04769166423261417	0.7228396641260013	0.2743484837820865	0.4687553689907267	-2.334045108990668	0.048321405389809	-0.6129895233468802	0.6198766319361569	-1.775016724594684	-1.775016724594435	0.003207901326204211	-0.005655794444550872	-0.2557798947144544	0.01856449034629225	-0.222525860261588	0.04728762354223778	-0.02099418080686927	-0.1986658558252649	0.1423181970206594	0.01104782490635575	0.2046565242373725	6.61253216698214	-9.087804696016775	4.623840515847362	-4.87916498275667	-598.144438354505	-33.96496981035575	-31.25743563196425	0.4621850364183472	0.6105990058247472	-0.4592227634065444	-0.9746226922339629	0.5650539534544854	-0.1394882310750811	1.582462418985565	-0.6569224908774626	-0.6569224909019614	-0.03232370554802342	-0.01973573673268326	-0.05626495899427608	0.5447351514082718	6.598026349097974e-08	1.248442248939127e-06	-3.907975825775613e-07	1.294922259025726e-07	2.434106464036447e-07	1.515181323513517e-07	1.982791543754884e-07
